<svg version="1.1" id="Layer_1" xmlns="http://www.w3.org/2000/svg" xmlns:xlink="http://www.w3.org/1999/xlink" x="0px" y="0px"
	 width="100%" viewBox="0 0 2000 310" enable-background="new 0 0 2000 310" xml:space="preserve">
<path fill="#4B6970" opacity="1.000000" stroke="none" 
	d="
M1489.000000,311.000000 
	C992.666687,311.000000 496.833344,311.000000 1.000000,311.000000 
	C1.000000,207.666672 1.000000,104.333336 1.000000,1.000000 
	C667.666687,1.000000 1334.333374,1.000000 2001.000000,1.000000 
	C2001.000000,104.333336 2001.000000,207.666672 2001.000000,311.000000 
	C1830.500000,311.000000 1660.000000,311.000000 1489.000000,311.000000 
M290.065887,173.079102 
	C267.740784,173.043854 245.415680,173.008606 223.047485,172.040222 
	C223.027908,149.381714 223.025330,126.723160 222.978241,104.064713 
	C222.964417,97.409927 222.575806,97.031517 215.804230,97.020988 
	C197.644043,96.992744 179.482758,97.120483 161.324219,96.946098 
	C156.512680,96.899902 154.897430,98.747383 154.947998,103.439621 
	C155.107849,118.265442 154.963547,133.094528 154.009201,147.963287 
	C133.869324,147.980194 113.728386,148.113220 93.590309,147.930923 
	C88.662491,147.886337 86.804688,149.434296 86.887230,154.511185 
	C87.122597,168.987671 86.934944,183.471024 85.990997,197.980560 
	C66.030617,197.996277 46.070000,198.067368 26.110056,197.981491 
	C22.072002,197.964127 19.952246,199.067123 19.968124,203.598129 
	C20.075388,234.203781 20.061119,264.810089 19.980423,295.415894 
	C19.969698,299.483826 21.591419,301.044800 25.624245,301.017273 
	C46.414223,300.875366 67.205177,300.876312 88.930992,300.903076 
	C111.187790,300.871338 133.444580,300.839600 156.673172,300.890625 
	C178.788773,300.872742 200.904388,300.854858 223.954056,300.920685 
	C245.973587,300.890350 267.993134,300.860016 290.943268,300.934906 
	C311.597931,300.953918 332.253235,300.894409 352.906677,301.062103 
	C356.761078,301.093384 358.391541,299.986084 358.053162,295.982330 
	C357.773590,292.674652 358.000854,289.324310 358.000793,285.992859 
	C358.000275,250.179810 357.998566,214.366745 357.999634,178.553696 
	C357.999725,175.716217 358.518646,172.904709 353.954071,172.948578 
	C332.969757,173.150269 311.983154,173.116318 290.065887,173.079102 
M445.508240,244.004044 
	C459.948547,257.912689 478.118042,263.298065 497.261292,264.737030 
	C513.550049,265.961487 530.047852,265.876251 546.066467,261.031067 
	C559.901489,256.846375 572.373291,250.694778 581.542847,239.000259 
	C588.947205,229.556992 590.274963,218.670715 590.053345,207.177750 
	C589.769531,192.456726 583.138306,181.327972 571.537354,172.837372 
	C556.002502,161.467575 537.341187,158.744736 519.399963,153.916061 
	C506.882629,150.547180 494.196625,147.311478 482.275726,142.356705 
	C469.917358,137.220123 466.400208,124.710892 473.092407,114.050369 
	C476.815521,108.119560 483.290222,105.851196 489.684357,104.072647 
	C500.561096,101.047234 511.641632,101.455872 522.656677,103.133263 
	C532.353333,104.609879 541.633301,107.798874 547.393921,116.178726 
	C551.074646,121.532944 553.039490,128.066666 556.034729,134.645111 
	C565.672119,134.645111 576.575989,134.645111 588.294861,134.645111 
	C587.843933,130.506653 587.393616,126.794586 587.041443,123.073212 
	C585.099121,102.544128 573.142822,88.827530 556.118286,79.167732 
	C540.268555,70.174477 522.739990,68.267570 504.756317,68.948982 
	C488.545593,69.563217 472.893188,72.422455 458.572144,80.242920 
	C435.858215,92.646591 429.783264,113.317810 433.424683,134.469177 
	C436.085602,149.925201 445.818878,161.041138 460.024719,166.727539 
	C475.243164,172.819244 491.133362,177.333755 506.923187,181.864761 
	C519.256836,185.404037 532.010681,187.561508 542.911072,194.966934 
	C551.432434,200.756119 554.051331,212.728622 548.198364,220.183380 
	C543.897522,225.661255 538.251404,229.110046 531.479736,231.121353 
	C521.277588,234.151581 510.960724,234.429367 500.625061,232.911804 
	C486.295593,230.807892 473.328186,225.850143 465.887085,212.216049 
	C463.731201,208.265839 462.686157,203.709381 461.110535,199.372040 
	C449.976044,199.372040 438.736755,199.372040 427.067444,199.372040 
	C426.273346,217.154892 432.277344,231.674866 445.508240,244.004044 
M1859.015259,179.474670 
	C1859.344116,183.088654 1859.943115,186.701523 1859.957886,190.316772 
	C1860.046997,212.147171 1860.002197,233.978119 1860.002441,255.808884 
	C1860.002441,257.731262 1860.002563,259.653656 1860.002563,261.612488 
	C1871.725098,261.612488 1882.623291,261.612488 1893.700806,261.612488 
	C1893.816040,259.937897 1893.967285,258.634430 1893.986450,257.329041 
	C1894.332886,233.714386 1894.217407,210.079788 1895.262207,186.496460 
	C1895.585938,179.187988 1898.169556,171.606735 1901.304688,164.890869 
	C1905.155273,156.642487 1913.201538,153.741943 1921.979370,154.094238 
	C1930.714722,154.444870 1937.891846,158.344055 1940.787720,166.927872 
	C1942.968628,173.392288 1944.670898,180.340225 1944.815918,187.110840 
	C1945.304199,209.931030 1945.001953,232.768158 1945.002075,255.598801 
	C1945.002075,257.541565 1945.002075,259.484314 1945.002075,261.687012 
	C1956.572144,261.687012 1967.469849,261.687012 1978.997559,261.687012 
	C1978.997559,259.436401 1978.997681,257.488312 1978.997681,255.540192 
	C1978.997803,235.042603 1979.451294,214.531036 1978.820435,194.052887 
	C1978.467041,182.578018 1977.467041,170.873627 1974.717651,159.778336 
	C1970.176880,141.452789 1960.213867,126.834015 1939.858765,123.602005 
	C1925.431396,121.311188 1911.682983,123.804054 1900.889038,134.749069 
	C1896.093994,139.611237 1892.043091,145.207245 1887.530640,150.618530 
	C1880.922363,133.659531 1869.810913,122.569717 1850.000244,122.947731 
	C1830.887207,123.312424 1818.456909,133.499924 1808.865234,149.362656 
	C1808.865234,140.697113 1808.865234,132.031555 1808.865234,123.402260 
	C1797.244141,123.402260 1786.345581,123.402260 1775.372681,123.402260 
	C1775.372681,169.698700 1775.372681,215.593826 1775.372681,261.652069 
	C1786.644043,261.652069 1797.541870,261.652069 1808.997681,261.652069 
	C1808.997681,259.363586 1808.997681,257.402435 1808.997681,255.441299 
	C1808.997803,235.110352 1808.508179,214.762085 1809.226929,194.456558 
	C1809.536377,185.717422 1811.508057,176.791397 1814.237427,168.444901 
	C1817.777832,157.617661 1829.570312,152.866226 1840.692871,154.622208 
	C1852.331787,156.459686 1857.946655,168.068756 1859.015259,179.474670 
M1101.498413,203.001038 
	C1096.391235,195.812988 1091.284058,188.624954 1086.099121,181.327499 
	C1104.991699,161.695877 1123.536499,142.425491 1142.081421,123.155121 
	C1127.970459,122.028496 1114.525879,121.971031 1101.083618,122.125244 
	C1099.858765,122.139297 1098.389771,123.276543 1097.473755,124.289734 
	C1089.927124,132.637238 1082.486206,141.080368 1075.009644,149.491348 
	C1067.092285,158.398178 1059.175171,167.305328 1051.249146,176.204453 
	C1048.568115,179.214615 1045.859863,182.200592 1043.164062,185.197617 
	C1042.689575,184.872803 1042.214966,184.547989 1041.740479,184.223190 
	C1041.740479,146.985947 1041.740479,109.748695 1041.740479,72.344116 
	C1029.688599,72.344116 1018.127869,72.344116 1006.462646,72.344116 
	C1006.462646,135.681396 1006.462646,198.675430 1006.462646,261.567505 
	C1018.490845,261.567505 1030.053589,261.567505 1041.999512,261.567505 
	C1041.999512,250.833344 1041.938721,240.524445 1042.060425,230.217667 
	C1042.080566,228.521408 1042.385620,226.350647 1043.440308,225.224014 
	C1049.205322,219.065536 1055.245483,213.164627 1061.307007,207.058273 
	C1073.565063,223.920441 1085.577148,240.247787 1097.331177,256.758728 
	C1100.078613,260.618042 1102.976807,262.368439 1107.908325,262.133057 
	C1117.548096,261.673035 1127.225220,261.998016 1136.886963,261.997986 
	C1138.785645,261.997986 1140.684204,261.997955 1143.841431,261.997955 
	C1129.355713,241.754532 1115.677979,222.640121 1101.498413,203.001038 
M1753.325928,261.997528 
	C1755.087891,261.903717 1756.849854,261.809875 1758.628418,261.715149 
	C1758.628418,215.281448 1758.628418,169.397690 1758.628418,123.342010 
	C1746.694824,123.342010 1735.133057,123.342010 1723.050903,123.342010 
	C1723.050903,131.558319 1723.050903,139.446609 1723.050903,148.854126 
	C1721.522095,146.518051 1720.969116,145.381836 1720.156006,144.480103 
	C1716.317505,140.223190 1712.827759,135.518280 1708.438110,131.918884 
	C1698.545044,123.807190 1686.672974,122.656883 1674.287231,122.897911 
	C1654.157104,123.289635 1637.738403,134.738480 1630.951904,153.762878 
	C1622.923218,176.269257 1623.224731,199.317612 1627.409668,222.296921 
	C1630.018555,236.621933 1636.099243,249.515793 1649.267334,257.876923 
	C1660.714844,265.145416 1673.388184,265.993744 1686.114502,264.766632 
	C1699.914795,263.435913 1711.708862,257.426422 1719.868286,245.595627 
	C1720.910400,244.084534 1721.956421,242.576096 1723.315674,240.610962 
	C1724.998901,247.024048 1726.801880,252.524933 1727.789673,258.168549 
	C1728.387451,261.583038 1730.055542,262.064636 1732.873901,262.024750 
	C1739.369629,261.932709 1745.867554,261.997040 1753.325928,261.997528 
M1592.505249,213.002258 
	C1589.005737,213.002518 1585.492920,213.192917 1582.010498,212.949463 
	C1578.541382,212.706940 1576.690430,213.675323 1575.617554,217.347748 
	C1574.727051,220.394958 1572.825806,223.447220 1570.602173,225.755310 
	C1557.035767,239.837433 1531.323608,239.394684 1518.805542,223.203979 
	C1512.953613,215.635330 1511.546509,206.705154 1511.190796,196.803741 
	C1544.734741,196.803741 1577.636719,196.803741 1610.997925,196.803741 
	C1610.997925,191.749130 1611.204956,187.268112 1610.962280,182.811584 
	C1609.857910,162.524124 1601.931152,145.687164 1584.887939,134.039246 
	C1568.365601,122.747192 1550.052612,120.666321 1530.536743,123.841888 
	C1499.800537,128.843201 1480.117432,155.420227 1478.086792,184.480804 
	C1477.241943,196.571442 1477.975708,208.620850 1481.997559,220.282181 
	C1487.526001,236.312668 1496.777588,249.300888 1511.974609,257.460846 
	C1527.057251,265.559448 1543.196045,266.232574 1559.743896,264.058838 
	C1578.132935,261.643188 1592.835205,253.298874 1602.959229,237.514511 
	C1607.633545,230.226929 1610.327515,222.279572 1610.934570,213.002258 
	C1604.764771,213.002258 1599.133179,213.002258 1592.505249,213.002258 
M700.131531,172.877441 
	C697.568909,186.650772 696.980164,200.402191 699.990112,214.224319 
	C704.632751,235.544708 716.287415,251.448242 736.670715,259.641113 
	C754.331116,266.739532 772.800659,266.865631 791.219604,262.357727 
	C809.103210,257.980835 822.314941,247.585236 830.037231,230.746872 
	C840.085083,208.837784 840.482056,186.289581 832.739258,163.776611 
	C826.603516,145.936432 814.464844,133.269836 796.299683,127.235947 
	C783.104858,122.853058 769.572876,122.271317 755.688354,123.856827 
	C727.097534,127.121704 706.958435,144.342529 700.131531,172.877441 
M1260.568481,146.009277 
	C1256.694824,141.343216 1253.601318,135.569031 1248.815186,132.198822 
	C1225.451294,115.746834 1199.673096,115.747810 1173.481934,123.463470 
	C1163.140625,126.509918 1153.945190,132.568771 1150.454468,143.528473 
	C1148.503906,149.652802 1148.352905,156.461136 1148.106079,162.988266 
	C1147.819458,170.571564 1151.092773,176.974335 1156.092896,182.647354 
	C1163.168579,190.675339 1172.429932,194.835266 1182.302246,197.940323 
	C1195.312378,202.032288 1208.488403,205.635666 1221.351685,210.138336 
	C1226.764526,212.033051 1231.556885,215.564484 1232.044067,222.472961 
	C1232.552368,229.680374 1228.182617,233.108658 1222.640137,236.177673 
	C1216.284912,239.696579 1209.491455,238.963989 1202.751465,238.983139 
	C1189.299683,239.021362 1179.999878,230.873749 1177.891357,217.590988 
	C1177.688477,216.313461 1176.220581,214.247986 1175.298706,214.225266 
	C1165.367676,213.980576 1155.428223,214.072739 1145.385498,214.072739 
	C1145.214355,215.489990 1145.032593,216.293243 1145.032837,217.096466 
	C1145.036011,231.420517 1152.386108,242.109146 1163.067505,250.308334 
	C1187.049561,268.717316 1224.069824,269.467529 1248.985962,255.978287 
	C1269.890503,244.660858 1270.340942,213.922302 1256.428711,200.791306 
	C1246.640381,191.552628 1234.562256,187.597214 1222.151123,184.001724 
	C1210.163940,180.529068 1197.602539,178.828964 1186.603394,172.288757 
	C1182.005371,169.554718 1180.113403,165.651947 1179.934692,160.413666 
	C1179.755859,155.174942 1182.538818,152.166611 1186.629883,149.729736 
	C1195.549438,144.416946 1205.132324,145.382736 1214.603027,147.108414 
	C1222.543823,148.555313 1229.280762,152.302902 1232.130493,160.565948 
	C1233.238770,163.779037 1233.769287,167.191376 1234.604614,170.686996 
	C1244.903320,170.686996 1255.145630,170.686996 1265.729370,170.686996 
	C1266.662720,161.951492 1264.601562,154.136292 1260.568481,146.009277 
M870.007507,246.502609 
	C874.992798,249.996185 879.655579,254.120865 885.024353,256.863831 
	C900.500671,264.770782 916.994995,266.502075 934.161926,264.085449 
	C958.905640,260.602142 976.000000,247.321030 985.586487,224.488815 
	C987.660950,219.548126 988.133606,213.934891 989.418518,208.305161 
	C977.583313,208.305161 966.986938,208.305161 956.547546,208.305161 
	C954.544739,215.145401 952.490845,221.548691 946.900330,226.076767 
	C936.985168,234.107697 925.592896,236.326767 913.416748,233.812546 
	C905.198914,232.115662 897.932495,228.347504 893.183716,220.771133 
	C886.713013,210.447586 884.958740,199.402100 885.851318,187.303909 
	C888.087952,156.988266 917.119995,147.034927 940.043518,156.536987 
	C949.525940,160.467529 954.494019,168.059052 956.487793,177.634430 
	C967.473083,177.634430 978.061768,177.634430 988.714111,177.634430 
	C988.812195,176.455902 989.057068,175.603104 988.923279,174.814545 
	C985.589233,155.162552 975.211487,140.513657 957.712402,130.910004 
	C942.031555,122.304306 925.209045,121.490517 908.069763,124.035614 
	C889.549988,126.785698 874.534119,135.676971 863.947998,151.340485 
	C857.096130,161.478882 853.279968,172.680054 851.773560,184.936508 
	C848.944336,207.956314 853.502930,228.566681 870.007507,246.502609 
M141.135254,7.185327 
	C124.790657,1.960375 108.096512,2.125146 91.338867,4.242173 
	C90.098198,4.398909 88.325882,6.685123 88.184883,8.117599 
	C87.556168,14.505174 89.789261,20.205837 93.799110,25.102518 
	C96.485085,28.382521 99.549782,31.352385 102.939629,34.992088 
	C101.912079,35.711109 101.089691,36.270603 100.283737,36.852848 
	C78.532013,52.567120 57.016979,68.623978 34.942204,83.870415 
	C22.008287,92.803520 17.043798,111.256065 25.553114,121.434937 
	C27.575710,123.854370 29.740074,126.163223 31.941626,128.423187 
	C34.989227,131.551666 37.937637,132.106491 41.943668,129.283096 
	C55.602795,119.656311 69.344658,110.121277 83.405594,101.097626 
	C96.921181,92.423943 110.944748,84.545456 124.587265,76.063675 
	C128.555130,73.596786 131.148514,74.343437 133.966583,77.651459 
	C137.719543,82.056915 141.778610,86.201607 146.163727,90.954208 
	C148.194656,87.824066 149.895035,86.055435 150.615768,83.951248 
	C154.632355,72.224663 159.557007,60.648617 161.999481,48.581532 
	C165.529877,31.139465 162.399765,15.473354 141.135254,7.185327 
M686.991028,237.769669 
	C687.431946,234.502441 685.639648,233.930695 682.839478,233.965225 
	C673.738708,234.077545 664.635803,234.007248 655.482422,234.007248 
	C655.482422,204.962250 655.482422,176.626556 655.482422,147.696198 
	C665.864441,147.696198 675.766724,147.696198 685.576172,147.696198 
	C685.576172,139.193466 685.576172,131.295746 685.576172,122.816544 
	C675.260315,122.816544 665.353271,122.816544 654.876953,122.816544 
	C654.876953,110.996010 654.876953,99.757355 654.876953,88.329575 
	C645.052917,88.329575 635.824768,88.329575 626.923035,88.329575 
	C625.914001,96.182373 625.205933,103.709587 623.910706,111.134377 
	C622.878784,117.049545 619.009827,120.793854 613.053223,121.956139 
	C609.225098,122.703110 605.320557,123.058571 601.358276,123.602135 
	C601.358276,131.670517 601.358276,139.567200 601.358276,148.054871 
	C608.273804,148.054871 614.849915,148.054871 622.002197,148.054871 
	C622.002197,150.595734 622.002197,152.546753 622.002197,154.497772 
	C622.002197,178.482483 621.952026,202.467377 622.048889,226.451706 
	C622.066101,230.728134 622.393127,235.052032 623.094727,239.267853 
	C625.179321,251.792923 633.723450,260.031372 646.550110,260.889343 
	C659.286987,261.741302 672.088501,261.631500 684.862549,261.902954 
	C685.460022,261.915680 686.065918,261.533691 686.996033,261.227448 
	C686.996033,253.669510 686.996033,246.194321 686.991028,237.769669 
M1342.495117,261.998108 
	C1347.572754,261.998108 1352.650391,261.998108 1357.556152,261.998108 
	C1357.556152,252.150909 1357.556152,243.253082 1357.556152,233.778473 
	C1346.886719,233.778473 1336.648071,233.778473 1326.357422,233.778473 
	C1326.357422,204.965744 1326.357422,176.748138 1326.357422,147.938797 
	C1336.606689,147.938797 1346.510620,147.938797 1356.524658,147.938797 
	C1356.524658,139.324875 1356.524658,131.310699 1356.524658,122.714821 
	C1346.153931,122.714821 1336.250244,122.714821 1325.778076,122.714821 
	C1325.778076,110.893303 1325.778076,99.656624 1325.778076,88.376740 
	C1315.953369,88.376740 1306.724731,88.376740 1297.002075,88.376740 
	C1297.002075,90.709984 1297.171875,92.690811 1296.969971,94.632988 
	C1296.375366,100.353607 1296.087891,106.161972 1294.823120,111.741684 
	C1293.519409,117.492775 1289.560913,121.172989 1283.446655,122.041710 
	C1279.752075,122.566643 1276.056396,123.084839 1272.397705,123.600906 
	C1272.397705,131.755875 1272.397705,139.651733 1272.397705,148.133026 
	C1279.354980,148.133026 1285.926392,148.133026 1293.001709,148.133026 
	C1293.001709,150.685089 1293.001709,152.645691 1293.001709,154.606293 
	C1293.001709,178.754395 1292.953003,202.902695 1293.048706,227.050430 
	C1293.064941,231.161224 1293.305664,235.350464 1294.127441,239.363205 
	C1296.230225,249.630692 1301.598511,257.848358 1312.408325,259.757507 
	C1321.939331,261.440826 1331.788696,261.321442 1342.495117,261.998108 
M1463.438110,161.997543 
	C1465.514526,161.997543 1467.590820,161.997543 1469.571289,161.997543 
	C1469.571289,148.517517 1469.571289,135.952606 1469.571289,123.214882 
	C1457.571289,122.412239 1446.480713,123.799683 1436.055054,129.416229 
	C1425.461060,135.123505 1418.346436,143.813751 1412.825439,154.606522 
	C1412.066406,144.165207 1411.307373,133.723892 1410.559570,123.437332 
	C1399.502563,123.437332 1388.937378,123.437332 1378.402100,123.437332 
	C1378.402100,169.765137 1378.402100,215.656357 1378.402100,261.624512 
	C1390.036255,261.624512 1401.266479,261.624512 1412.997803,261.624512 
	C1412.997803,257.129944 1412.940674,252.996872 1413.007568,248.865768 
	C1413.321899,229.421844 1413.242310,209.957504 1414.192871,190.544006 
	C1414.646118,181.289597 1419.395142,173.714859 1427.941406,168.943573 
	C1438.750610,162.908768 1450.697266,162.930801 1463.438110,161.997543 
z"/>
<path fill="#01FF70" opacity="1.000000" stroke="none" 
	d="
M445.257385,243.754486 
	C432.277344,231.674866 426.273346,217.154892 427.067444,199.372040 
	C438.736755,199.372040 449.976044,199.372040 461.110535,199.372040 
	C462.686157,203.709381 463.731201,208.265839 465.887085,212.216049 
	C473.328186,225.850143 486.295593,230.807892 500.625061,232.911804 
	C510.960724,234.429367 521.277588,234.151581 531.479736,231.121353 
	C538.251404,229.110046 543.897522,225.661255 548.198364,220.183380 
	C554.051331,212.728622 551.432434,200.756119 542.911072,194.966934 
	C532.010681,187.561508 519.256836,185.404037 506.923187,181.864761 
	C491.133362,177.333755 475.243164,172.819244 460.024719,166.727539 
	C445.818878,161.041138 436.085602,149.925201 433.424683,134.469177 
	C429.783264,113.317810 435.858215,92.646591 458.572144,80.242920 
	C472.893188,72.422455 488.545593,69.563217 504.756317,68.948982 
	C522.739990,68.267570 540.268555,70.174477 556.118286,79.167732 
	C573.142822,88.827530 585.099121,102.544128 587.041443,123.073212 
	C587.393616,126.794586 587.843933,130.506653 588.294861,134.645111 
	C576.575989,134.645111 565.672119,134.645111 556.034729,134.645111 
	C553.039490,128.066666 551.074646,121.532944 547.393921,116.178726 
	C541.633301,107.798874 532.353333,104.609879 522.656677,103.133263 
	C511.641632,101.455872 500.561096,101.047234 489.684357,104.072647 
	C483.290222,105.851196 476.815521,108.119560 473.092407,114.050369 
	C466.400208,124.710892 469.917358,137.220123 482.275726,142.356705 
	C494.196625,147.311478 506.882629,150.547180 519.399963,153.916061 
	C537.341187,158.744736 556.002502,161.467575 571.537354,172.837372 
	C583.138306,181.327972 589.769531,192.456726 590.053345,207.177750 
	C590.274963,218.670715 588.947205,229.556992 581.542847,239.000259 
	C572.373291,250.694778 559.901489,256.846375 546.066467,261.031067 
	C530.047852,265.876251 513.550049,265.961487 497.261292,264.737030 
	C478.118042,263.298065 459.948547,257.912689 445.257385,243.754486 
z"/>
<path fill="#01FF70" opacity="1.000000" stroke="none" 
	d="
M1859.009277,179.030487 
	C1857.946655,168.068756 1852.331787,156.459686 1840.692871,154.622208 
	C1829.570312,152.866226 1817.777832,157.617661 1814.237427,168.444901 
	C1811.508057,176.791397 1809.536377,185.717422 1809.226929,194.456558 
	C1808.508179,214.762085 1808.997803,235.110352 1808.997681,255.441299 
	C1808.997681,257.402435 1808.997681,259.363586 1808.997681,261.652069 
	C1797.541870,261.652069 1786.644043,261.652069 1775.372681,261.652069 
	C1775.372681,215.593826 1775.372681,169.698700 1775.372681,123.402260 
	C1786.345581,123.402260 1797.244141,123.402260 1808.865234,123.402260 
	C1808.865234,132.031555 1808.865234,140.697113 1808.865234,149.362656 
	C1818.456909,133.499924 1830.887207,123.312424 1850.000244,122.947731 
	C1869.810913,122.569717 1880.922363,133.659531 1887.530640,150.618530 
	C1892.043091,145.207245 1896.093994,139.611237 1900.889038,134.749069 
	C1911.682983,123.804054 1925.431396,121.311188 1939.858765,123.602005 
	C1960.213867,126.834015 1970.176880,141.452789 1974.717651,159.778336 
	C1977.467041,170.873627 1978.467041,182.578018 1978.820435,194.052887 
	C1979.451294,214.531036 1978.997803,235.042603 1978.997681,255.540192 
	C1978.997681,257.488312 1978.997559,259.436401 1978.997559,261.687012 
	C1967.469849,261.687012 1956.572144,261.687012 1945.002075,261.687012 
	C1945.002075,259.484314 1945.002075,257.541565 1945.002075,255.598801 
	C1945.001953,232.768158 1945.304199,209.931030 1944.815918,187.110840 
	C1944.670898,180.340225 1942.968628,173.392288 1940.787720,166.927872 
	C1937.891846,158.344055 1930.714722,154.444870 1921.979370,154.094238 
	C1913.201538,153.741943 1905.155273,156.642487 1901.304688,164.890869 
	C1898.169556,171.606735 1895.585938,179.187988 1895.262207,186.496460 
	C1894.217407,210.079788 1894.332886,233.714386 1893.986450,257.329041 
	C1893.967285,258.634430 1893.816040,259.937897 1893.700806,261.612488 
	C1882.623291,261.612488 1871.725098,261.612488 1860.002563,261.612488 
	C1860.002563,259.653656 1860.002441,257.731262 1860.002441,255.808884 
	C1860.002197,233.978119 1860.046997,212.147171 1859.957886,190.316772 
	C1859.943115,186.701523 1859.344116,183.088654 1859.009277,179.030487 
z"/>
<path fill="#20A365" opacity="1.000000" stroke="none" 
	d="
M223.019989,300.837006 
	C200.904388,300.854858 178.788773,300.872742 156.220688,300.395508 
	C155.797058,251.198318 155.836609,202.496277 155.815811,153.794250 
	C155.814987,151.836838 155.242859,149.879654 154.936920,147.922363 
	C154.963547,133.094528 155.107849,118.265442 154.947998,103.439621 
	C154.897430,98.747383 156.512680,96.899902 161.324219,96.946098 
	C179.482758,97.120483 197.644043,96.992744 215.804230,97.020988 
	C222.575806,97.031517 222.964417,97.409927 222.978241,104.064713 
	C223.025330,126.723160 223.027908,149.381714 223.048889,172.976044 
	C223.040192,216.220230 223.030090,258.528625 223.019989,300.837006 
z"/>
<path fill="#01FF70" opacity="1.000000" stroke="none" 
	d="
M1101.749268,203.263367 
	C1115.677979,222.640121 1129.355713,241.754532 1143.841431,261.997955 
	C1140.684204,261.997955 1138.785645,261.997986 1136.886963,261.997986 
	C1127.225220,261.998016 1117.548096,261.673035 1107.908325,262.133057 
	C1102.976807,262.368439 1100.078613,260.618042 1097.331177,256.758728 
	C1085.577148,240.247787 1073.565063,223.920441 1061.307007,207.058273 
	C1055.245483,213.164627 1049.205322,219.065536 1043.440308,225.224014 
	C1042.385620,226.350647 1042.080566,228.521408 1042.060425,230.217667 
	C1041.938721,240.524445 1041.999512,250.833344 1041.999512,261.567505 
	C1030.053589,261.567505 1018.490845,261.567505 1006.462646,261.567505 
	C1006.462646,198.675430 1006.462646,135.681396 1006.462646,72.344116 
	C1018.127869,72.344116 1029.688599,72.344116 1041.740479,72.344116 
	C1041.740479,109.748695 1041.740479,146.985947 1041.740479,184.223190 
	C1042.214966,184.547989 1042.689575,184.872803 1043.164062,185.197617 
	C1045.859863,182.200592 1048.568115,179.214615 1051.249146,176.204453 
	C1059.175171,167.305328 1067.092285,158.398178 1075.009644,149.491348 
	C1082.486206,141.080368 1089.927124,132.637238 1097.473755,124.289734 
	C1098.389771,123.276543 1099.858765,122.139297 1101.083618,122.125244 
	C1114.525879,121.971031 1127.970459,122.028496 1142.081421,123.155121 
	C1123.536499,142.425491 1104.991699,161.695877 1086.099121,181.327499 
	C1091.284058,188.624954 1096.391235,195.812988 1101.749268,203.263367 
z"/>
<path fill="#01FF70" opacity="1.000000" stroke="none" 
	d="
M1752.845215,261.997742 
	C1745.867554,261.997040 1739.369629,261.932709 1732.873901,262.024750 
	C1730.055542,262.064636 1728.387451,261.583038 1727.789673,258.168549 
	C1726.801880,252.524933 1724.998901,247.024048 1723.315674,240.610962 
	C1721.956421,242.576096 1720.910400,244.084534 1719.868286,245.595627 
	C1711.708862,257.426422 1699.914795,263.435913 1686.114502,264.766632 
	C1673.388184,265.993744 1660.714844,265.145416 1649.267334,257.876923 
	C1636.099243,249.515793 1630.018555,236.621933 1627.409668,222.296921 
	C1623.224731,199.317612 1622.923218,176.269257 1630.951904,153.762878 
	C1637.738403,134.738480 1654.157104,123.289635 1674.287231,122.897911 
	C1686.672974,122.656883 1698.545044,123.807190 1708.438110,131.918884 
	C1712.827759,135.518280 1716.317505,140.223190 1720.156006,144.480103 
	C1720.969116,145.381836 1721.522095,146.518051 1723.050903,148.854126 
	C1723.050903,139.446609 1723.050903,131.558319 1723.050903,123.342010 
	C1735.133057,123.342010 1746.694824,123.342010 1758.628418,123.342010 
	C1758.628418,169.397690 1758.628418,215.281448 1758.628418,261.715149 
	C1756.849854,261.809875 1755.087891,261.903717 1752.845215,261.997742 
M1662.418579,173.079285 
	C1658.589355,184.600250 1657.948364,196.410660 1660.137939,208.239960 
	C1661.810181,217.274338 1665.060181,225.709763 1673.469238,230.976547 
	C1679.654297,234.850433 1686.500732,235.096756 1693.501099,235.034103 
	C1707.545410,234.908386 1717.707031,226.979538 1720.971436,213.323425 
	C1723.659790,202.077454 1723.996582,190.645218 1721.708740,179.424759 
	C1720.566650,173.823166 1717.998291,168.095078 1714.654785,163.445618 
	C1707.446777,153.421967 1696.259644,153.014740 1685.412964,154.241196 
	C1674.452637,155.480515 1666.632080,161.715164 1662.418579,173.079285 
z"/>
<path fill="#01FF70" opacity="1.000000" stroke="none" 
	d="
M1593.003418,213.002258 
	C1599.133179,213.002258 1604.764771,213.002258 1610.934570,213.002258 
	C1610.327515,222.279572 1607.633545,230.226929 1602.959229,237.514511 
	C1592.835205,253.298874 1578.132935,261.643188 1559.743896,264.058838 
	C1543.196045,266.232574 1527.057251,265.559448 1511.974609,257.460846 
	C1496.777588,249.300888 1487.526001,236.312668 1481.997559,220.282181 
	C1477.975708,208.620850 1477.241943,196.571442 1478.086792,184.480804 
	C1480.117432,155.420227 1499.800537,128.843201 1530.536743,123.841888 
	C1550.052612,120.666321 1568.365601,122.747192 1584.887939,134.039246 
	C1601.931152,145.687164 1609.857910,162.524124 1610.962280,182.811584 
	C1611.204956,187.268112 1610.997925,191.749130 1610.997925,196.803741 
	C1577.636719,196.803741 1544.734741,196.803741 1511.190796,196.803741 
	C1511.546509,206.705154 1512.953613,215.635330 1518.805542,223.203979 
	C1531.323608,239.394684 1557.035767,239.837433 1570.602173,225.755310 
	C1572.825806,223.447220 1574.727051,220.394958 1575.617554,217.347748 
	C1576.690430,213.675323 1578.541382,212.706940 1582.010498,212.949463 
	C1585.492920,213.192917 1589.005737,213.002518 1593.003418,213.002258 
M1514.858521,171.491287 
	C1514.055786,174.509933 1513.253174,177.528580 1512.406128,180.714142 
	C1534.055054,180.714142 1554.791748,180.714142 1576.870239,180.714142 
	C1574.790283,174.917328 1573.611450,169.394775 1570.966431,164.697968 
	C1564.232422,152.740753 1548.542603,148.367081 1533.468262,152.763199 
	C1523.988281,155.527817 1518.807739,162.304535 1514.858521,171.491287 
z"/>
<path fill="#01FF70" opacity="1.000000" stroke="none" 
	d="
M700.287720,172.483749 
	C706.958435,144.342529 727.097534,127.121704 755.688354,123.856827 
	C769.572876,122.271317 783.104858,122.853058 796.299683,127.235947 
	C814.464844,133.269836 826.603516,145.936432 832.739258,163.776611 
	C840.482056,186.289581 840.085083,208.837784 830.037231,230.746872 
	C822.314941,247.585236 809.103210,257.980835 791.219604,262.357727 
	C772.800659,266.865631 754.331116,266.739532 736.670715,259.641113 
	C716.287415,251.448242 704.632751,235.544708 699.990112,214.224319 
	C696.980164,200.402191 697.568909,186.650772 700.287720,172.483749 
M801.047607,174.528702 
	C798.056702,162.694763 791.421814,154.234207 778.901062,151.984344 
	C773.667664,151.043930 768.219177,151.023132 762.871155,151.054108 
	C750.929810,151.123276 739.994995,159.121002 736.030762,170.347305 
	C731.393188,183.480667 730.914856,196.867767 734.271423,210.287094 
	C736.928833,220.911194 742.636414,229.330933 753.533264,233.152374 
	C761.571106,235.971222 769.749939,235.349762 777.996033,234.157501 
	C788.989624,232.567978 796.185059,225.932587 799.694275,216.111420 
	C804.424133,202.874146 804.915344,189.093887 801.047607,174.528702 
z"/>
<path fill="#01FF70" opacity="1.000000" stroke="none" 
	d="
M1260.807129,146.301590 
	C1264.601562,154.136292 1266.662720,161.951492 1265.729370,170.686996 
	C1255.145630,170.686996 1244.903320,170.686996 1234.604614,170.686996 
	C1233.769287,167.191376 1233.238770,163.779037 1232.130493,160.565948 
	C1229.280762,152.302902 1222.543823,148.555313 1214.603027,147.108414 
	C1205.132324,145.382736 1195.549438,144.416946 1186.629883,149.729736 
	C1182.538818,152.166611 1179.755859,155.174942 1179.934692,160.413666 
	C1180.113403,165.651947 1182.005371,169.554718 1186.603394,172.288757 
	C1197.602539,178.828964 1210.163940,180.529068 1222.151123,184.001724 
	C1234.562256,187.597214 1246.640381,191.552628 1256.428711,200.791306 
	C1270.340942,213.922302 1269.890503,244.660858 1248.985962,255.978287 
	C1224.069824,269.467529 1187.049561,268.717316 1163.067505,250.308334 
	C1152.386108,242.109146 1145.036011,231.420517 1145.032837,217.096466 
	C1145.032593,216.293243 1145.214355,215.489990 1145.385498,214.072739 
	C1155.428223,214.072739 1165.367676,213.980576 1175.298706,214.225266 
	C1176.220581,214.247986 1177.688477,216.313461 1177.891357,217.590988 
	C1179.999878,230.873749 1189.299683,239.021362 1202.751465,238.983139 
	C1209.491455,238.963989 1216.284912,239.696579 1222.640137,236.177673 
	C1228.182617,233.108658 1232.552368,229.680374 1232.044067,222.472961 
	C1231.556885,215.564484 1226.764526,212.033051 1221.351685,210.138336 
	C1208.488403,205.635666 1195.312378,202.032288 1182.302246,197.940323 
	C1172.429932,194.835266 1163.168579,190.675339 1156.092896,182.647354 
	C1151.092773,176.974335 1147.819458,170.571564 1148.106079,162.988266 
	C1148.352905,156.461136 1148.503906,149.652802 1150.454468,143.528473 
	C1153.945190,132.568771 1163.140625,126.509918 1173.481934,123.463470 
	C1199.673096,115.747810 1225.451294,115.746834 1248.815186,132.198822 
	C1253.601318,135.569031 1256.694824,141.343216 1260.807129,146.301590 
z"/>
<path fill="#0F7C41" opacity="1.000000" stroke="none" 
	d="
M154.473053,147.942825 
	C155.242859,149.879654 155.814987,151.836838 155.815811,153.794250 
	C155.836609,202.496277 155.797058,251.198318 155.734802,300.354126 
	C133.444580,300.839600 111.187790,300.871338 88.463837,300.409363 
	C87.997391,269.037476 88.028992,238.159241 87.951408,207.281265 
	C87.943588,204.170563 87.275429,201.061493 86.913719,197.951675 
	C86.934944,183.471024 87.122597,168.987671 86.887230,154.511185 
	C86.804688,149.434296 88.662491,147.886337 93.590309,147.930923 
	C113.728386,148.113220 133.869324,147.980194 154.473053,147.942825 
z"/>
<path fill="#01FF70" opacity="1.000000" stroke="none" 
	d="
M869.752808,246.247894 
	C853.502930,228.566681 848.944336,207.956314 851.773560,184.936508 
	C853.279968,172.680054 857.096130,161.478882 863.947998,151.340485 
	C874.534119,135.676971 889.549988,126.785698 908.069763,124.035614 
	C925.209045,121.490517 942.031555,122.304306 957.712402,130.910004 
	C975.211487,140.513657 985.589233,155.162552 988.923279,174.814545 
	C989.057068,175.603104 988.812195,176.455902 988.714111,177.634430 
	C978.061768,177.634430 967.473083,177.634430 956.487793,177.634430 
	C954.494019,168.059052 949.525940,160.467529 940.043518,156.536987 
	C917.119995,147.034927 888.087952,156.988266 885.851318,187.303909 
	C884.958740,199.402100 886.713013,210.447586 893.183716,220.771133 
	C897.932495,228.347504 905.198914,232.115662 913.416748,233.812546 
	C925.592896,236.326767 936.985168,234.107697 946.900330,226.076767 
	C952.490845,221.548691 954.544739,215.145401 956.547546,208.305161 
	C966.986938,208.305161 977.583313,208.305161 989.418518,208.305161 
	C988.133606,213.934891 987.660950,219.548126 985.586487,224.488815 
	C976.000000,247.321030 958.905640,260.602142 934.161926,264.085449 
	C916.994995,266.502075 900.500671,264.770782 885.024353,256.863831 
	C879.655579,254.120865 874.992798,249.996185 869.752808,246.247894 
z"/>
<path fill="#60E3A6" opacity="1.000000" stroke="none" 
	d="
M290.997375,173.166931 
	C311.983154,173.116318 332.969757,173.150269 353.954071,172.948578 
	C358.518646,172.904709 357.999725,175.716217 357.999634,178.553696 
	C357.998566,214.366745 358.000275,250.179810 358.000793,285.992859 
	C358.000854,289.324310 357.773590,292.674652 358.053162,295.982330 
	C358.391541,299.986084 356.761078,301.093384 352.906677,301.062103 
	C332.253235,300.894409 311.597931,300.953918 290.500427,300.425720 
	C290.078430,260.629822 290.080475,221.343094 290.157745,182.056503 
	C290.163574,179.092773 290.704956,176.130096 290.997375,173.166931 
z"/>
<path fill="#33C480" opacity="1.000000" stroke="none" 
	d="
M290.531616,173.123016 
	C290.704956,176.130096 290.163574,179.092773 290.157745,182.056503 
	C290.080475,221.343094 290.078430,260.629822 290.035156,300.373077 
	C267.993134,300.860016 245.973587,300.890350 223.487030,300.878845 
	C223.030090,258.528625 223.040192,216.220230 223.070435,173.442596 
	C245.415680,173.008606 267.740784,173.043854 290.531616,173.123016 
z"/>
<path fill="#33C382" opacity="1.000000" stroke="none" 
	d="
M141.493805,7.333201 
	C162.399765,15.473354 165.529877,31.139465 161.999481,48.581532 
	C159.557007,60.648617 154.632355,72.224663 150.615768,83.951248 
	C149.895035,86.055435 148.194656,87.824066 146.163727,90.954208 
	C141.778610,86.201607 137.719543,82.056915 133.966583,77.651459 
	C131.148514,74.343437 128.555130,73.596786 124.587265,76.063675 
	C110.944748,84.545456 96.921181,92.423943 83.405594,101.097626 
	C69.344658,110.121277 55.602795,119.656311 41.943668,129.283096 
	C37.937637,132.106491 34.989227,131.551666 31.941626,128.423187 
	C29.740074,126.163223 27.575710,123.854370 25.553114,121.434937 
	C17.043798,111.256065 22.008287,92.803520 34.942204,83.870415 
	C57.016979,68.623978 78.532013,52.567120 100.283737,36.852848 
	C101.089691,36.270603 101.912079,35.711109 102.939629,34.992088 
	C99.549782,31.352385 96.485085,28.382521 93.799110,25.102518 
	C89.789261,20.205837 87.556168,14.505174 88.184883,8.117599 
	C88.325882,6.685123 90.098198,4.398909 91.338867,4.242173 
	C108.096512,2.125146 124.790657,1.960375 141.493805,7.333201 
z"/>
<path fill="#01FF70" opacity="1.000000" stroke="none" 
	d="
M686.993530,238.244415 
	C686.996033,246.194321 686.996033,253.669510 686.996033,261.227448 
	C686.065918,261.533691 685.460022,261.915680 684.862549,261.902954 
	C672.088501,261.631500 659.286987,261.741302 646.550110,260.889343 
	C633.723450,260.031372 625.179321,251.792923 623.094727,239.267853 
	C622.393127,235.052032 622.066101,230.728134 622.048889,226.451706 
	C621.952026,202.467377 622.002197,178.482483 622.002197,154.497772 
	C622.002197,152.546753 622.002197,150.595734 622.002197,148.054871 
	C614.849915,148.054871 608.273804,148.054871 601.358276,148.054871 
	C601.358276,139.567200 601.358276,131.670517 601.358276,123.602135 
	C605.320557,123.058571 609.225098,122.703110 613.053223,121.956139 
	C619.009827,120.793854 622.878784,117.049545 623.910706,111.134377 
	C625.205933,103.709587 625.914001,96.182373 626.923035,88.329575 
	C635.824768,88.329575 645.052917,88.329575 654.876953,88.329575 
	C654.876953,99.757355 654.876953,110.996010 654.876953,122.816544 
	C665.353271,122.816544 675.260315,122.816544 685.576172,122.816544 
	C685.576172,131.295746 685.576172,139.193466 685.576172,147.696198 
	C675.766724,147.696198 665.864441,147.696198 655.482422,147.696198 
	C655.482422,176.626556 655.482422,204.962250 655.482422,234.007248 
	C664.635803,234.007248 673.738708,234.077545 682.839478,233.965225 
	C685.639648,233.930695 687.431946,234.502441 686.993530,238.244415 
z"/>
<path fill="#01FF70" opacity="1.000000" stroke="none" 
	d="
M1341.996338,261.998108 
	C1331.788696,261.321442 1321.939331,261.440826 1312.408325,259.757507 
	C1301.598511,257.848358 1296.230225,249.630692 1294.127441,239.363205 
	C1293.305664,235.350464 1293.064941,231.161224 1293.048706,227.050430 
	C1292.953003,202.902695 1293.001709,178.754395 1293.001709,154.606293 
	C1293.001709,152.645691 1293.001709,150.685089 1293.001709,148.133026 
	C1285.926392,148.133026 1279.354980,148.133026 1272.397705,148.133026 
	C1272.397705,139.651733 1272.397705,131.755875 1272.397705,123.600906 
	C1276.056396,123.084839 1279.752075,122.566643 1283.446655,122.041710 
	C1289.560913,121.172989 1293.519409,117.492775 1294.823120,111.741684 
	C1296.087891,106.161972 1296.375366,100.353607 1296.969971,94.632988 
	C1297.171875,92.690811 1297.002075,90.709984 1297.002075,88.376740 
	C1306.724731,88.376740 1315.953369,88.376740 1325.778076,88.376740 
	C1325.778076,99.656624 1325.778076,110.893303 1325.778076,122.714821 
	C1336.250244,122.714821 1346.153931,122.714821 1356.524658,122.714821 
	C1356.524658,131.310699 1356.524658,139.324875 1356.524658,147.938797 
	C1346.510620,147.938797 1336.606689,147.938797 1326.357422,147.938797 
	C1326.357422,176.748138 1326.357422,204.965744 1326.357422,233.778473 
	C1336.648071,233.778473 1346.886719,233.778473 1357.556152,233.778473 
	C1357.556152,243.253082 1357.556152,252.150909 1357.556152,261.998108 
	C1352.650391,261.998108 1347.572754,261.998108 1341.996338,261.998108 
z"/>
<path fill="#185B36" opacity="1.000000" stroke="none" 
	d="
M86.452362,197.966125 
	C87.275429,201.061493 87.943588,204.170563 87.951408,207.281265 
	C88.028992,238.159241 87.997391,269.037476 87.996231,300.371521 
	C67.205177,300.876312 46.414223,300.875366 25.624245,301.017273 
	C21.591419,301.044800 19.969698,299.483826 19.980423,295.415894 
	C20.061119,264.810089 20.075388,234.203781 19.968124,203.598129 
	C19.952246,199.067123 22.072002,197.964127 26.110056,197.981491 
	C46.070000,198.067368 66.030617,197.996277 86.452362,197.966125 
z"/>
<path fill="#01FF70" opacity="1.000000" stroke="none" 
	d="
M1462.963135,161.997620 
	C1450.697266,162.930801 1438.750610,162.908768 1427.941406,168.943573 
	C1419.395142,173.714859 1414.646118,181.289597 1414.192871,190.544006 
	C1413.242310,209.957504 1413.321899,229.421844 1413.007568,248.865768 
	C1412.940674,252.996872 1412.997803,257.129944 1412.997803,261.624512 
	C1401.266479,261.624512 1390.036255,261.624512 1378.402100,261.624512 
	C1378.402100,215.656357 1378.402100,169.765137 1378.402100,123.437332 
	C1388.937378,123.437332 1399.502563,123.437332 1410.559570,123.437332 
	C1411.307373,133.723892 1412.066406,144.165207 1412.825439,154.606522 
	C1418.346436,143.813751 1425.461060,135.123505 1436.055054,129.416229 
	C1446.480713,123.799683 1457.571289,122.412239 1469.571289,123.214882 
	C1469.571289,135.952606 1469.571289,148.517517 1469.571289,161.997543 
	C1467.590820,161.997543 1465.514526,161.997543 1462.963135,161.997620 
z"/>
<path fill="#4C6971" opacity="1.000000" stroke="none" 
	d="
M1662.615845,172.735687 
	C1666.632080,161.715164 1674.452637,155.480515 1685.412964,154.241196 
	C1696.259644,153.014740 1707.446777,153.421967 1714.654785,163.445618 
	C1717.998291,168.095078 1720.566650,173.823166 1721.708740,179.424759 
	C1723.996582,190.645218 1723.659790,202.077454 1720.971436,213.323425 
	C1717.707031,226.979538 1707.545410,234.908386 1693.501099,235.034103 
	C1686.500732,235.096756 1679.654297,234.850433 1673.469238,230.976547 
	C1665.060181,225.709763 1661.810181,217.274338 1660.137939,208.239960 
	C1657.948364,196.410660 1658.589355,184.600250 1662.615845,172.735687 
z"/>
<path fill="#4C6971" opacity="1.000000" stroke="none" 
	d="
M1514.966797,171.120209 
	C1518.807739,162.304535 1523.988281,155.527817 1533.468262,152.763199 
	C1548.542603,148.367081 1564.232422,152.740753 1570.966431,164.697968 
	C1573.611450,169.394775 1574.790283,174.917328 1576.870239,180.714142 
	C1554.791748,180.714142 1534.055054,180.714142 1512.406128,180.714142 
	C1513.253174,177.528580 1514.055786,174.509933 1514.966797,171.120209 
z"/>
<path fill="#4C6971" opacity="1.000000" stroke="none" 
	d="
M801.120850,174.939941 
	C804.915344,189.093887 804.424133,202.874146 799.694275,216.111420 
	C796.185059,225.932587 788.989624,232.567978 777.996033,234.157501 
	C769.749939,235.349762 761.571106,235.971222 753.533264,233.152374 
	C742.636414,229.330933 736.928833,220.911194 734.271423,210.287094 
	C730.914856,196.867767 731.393188,183.480667 736.030762,170.347305 
	C739.994995,159.121002 750.929810,151.123276 762.871155,151.054108 
	C768.219177,151.023132 773.667664,151.043930 778.901062,151.984344 
	C791.421814,154.234207 798.056702,162.694763 801.120850,174.939941 
z"/>
</svg>